<svg width="49" height="49" viewBox="0 0 49 49" fill="none" xmlns="http://www.w3.org/2000/svg">
<g id="Frame" clip-path="url(#clip0_90_1026)">
<path id="Vector" fill-rule="evenodd" clip-rule="evenodd" d="M3.15605 8.75872C3.8647 8.76179 4.54341 9.04468 5.04451 9.54577C5.5456 10.0469 5.82851 10.7256 5.83158 11.4343C5.85035 12.1291 6.13959 12.7891 6.63766 13.2739C7.13574 13.7587 7.80332 14.03 8.49838 14.03C9.19343 14.03 9.86102 13.7587 10.3591 13.2739C10.8572 12.7891 11.1464 12.1291 11.1652 11.4343V3.10412C11.1682 2.39547 11.4511 1.71671 11.9521 1.21562C12.4532 0.714524 13.132 0.431661 13.8407 0.428589V0.428589C14.5466 0.435241 15.2214 0.719811 15.719 1.22063C16.2165 1.72145 16.4966 2.39817 16.4987 3.10412V20.5933C16.489 20.9496 16.5509 21.3042 16.6806 21.6361C16.8103 21.9681 17.0052 22.2707 17.2538 22.5261C17.5024 22.7815 17.7996 22.9845 18.1279 23.1231C18.4563 23.2617 18.809 23.3331 19.1654 23.3331C19.5218 23.3331 19.8746 23.2617 20.203 23.1231C20.5313 22.9845 20.8286 22.7815 21.0772 22.5261C21.3258 22.2707 21.5206 21.9681 21.6503 21.6361C21.78 21.3042 21.8419 20.9496 21.8322 20.5933V11.4343C21.8353 10.7256 22.1182 10.0469 22.6193 9.54577C23.1204 9.04468 23.7991 8.76179 24.5078 8.75872V8.75872C25.2137 8.76537 25.8885 9.04997 26.386 9.55079C26.8836 10.0516 27.1638 10.7283 27.1658 11.4343V20.5933C27.1658 21.3004 27.4467 21.9784 27.9466 22.4783C28.4466 22.9783 29.1245 23.2591 29.8316 23.2591C30.5386 23.2591 31.2167 22.9783 31.7166 22.4783C32.2165 21.9784 32.4974 21.3004 32.4974 20.5933V3.10412C32.5005 2.39514 32.7836 1.71608 33.2851 1.21493C33.7867 0.71378 34.4658 0.431149 35.1748 0.428589V0.428589C35.8815 0.432193 36.558 0.71584 37.0559 1.21738C37.5538 1.71891 37.8325 2.39742 37.831 3.10412V11.4343C37.8497 12.1291 38.1389 12.7891 38.637 13.2739C39.135 13.7587 39.8026 14.03 40.4977 14.03C41.1927 14.03 41.8604 13.7587 42.3585 13.2739C42.8565 12.7891 43.1457 12.1291 43.1645 11.4343C43.1675 10.7253 43.4507 10.0462 43.9522 9.54509C44.4537 9.04394 45.133 8.76128 45.842 8.75872V8.75872C46.5487 8.76233 47.2251 9.046 47.723 9.54753C48.2209 10.0491 48.4996 10.7275 48.498 11.4343V37.4424C48.4955 38.146 48.2148 38.8201 47.7172 39.3177C47.2197 39.8152 46.5456 40.0959 45.842 40.0984V40.0984C45.136 40.0969 44.4591 39.8173 43.9579 39.3201C43.4567 38.823 43.1716 38.1483 43.1645 37.4424C43.1741 37.0861 43.1123 36.7315 42.9826 36.3996C42.8529 36.0676 42.658 35.765 42.4094 35.5096C42.1608 35.2542 41.8635 35.0512 41.5352 34.9126C41.2069 34.774 40.8541 34.7026 40.4977 34.7026C40.1413 34.7026 39.7886 34.774 39.4602 34.9126C39.1319 35.0512 38.8346 35.2542 38.586 35.5096C38.3374 35.765 38.1425 36.0676 38.0128 36.3996C37.8831 36.7315 37.8214 37.0861 37.831 37.4424V45.7628C37.8315 46.1118 37.7631 46.4575 37.6298 46.7801C37.4966 47.1027 37.301 47.3958 37.0543 47.6427C36.8075 47.8896 36.5145 48.0854 36.192 48.219C35.8695 48.3525 35.5239 48.4211 35.1748 48.4208C34.4679 48.4218 33.7895 48.1427 33.288 47.6445C32.7865 47.1463 32.5029 46.4697 32.4993 45.7628V28.2502C32.4993 27.5432 32.2185 26.8651 31.7186 26.3652C31.2186 25.8653 30.5406 25.5844 29.8336 25.5844C29.1265 25.5844 28.4485 25.8653 27.9485 26.3652C27.4486 26.8651 27.1677 27.5432 27.1677 28.2502V37.4288C27.1616 38.1316 26.8796 38.804 26.3823 39.3008C25.8851 39.7977 25.2126 40.0792 24.5098 40.0848V40.0848C23.8041 40.0828 23.1277 39.8029 22.6269 39.3058C22.1261 38.8087 21.8414 38.1343 21.8342 37.4288V28.2502C21.8155 27.5554 21.5262 26.8954 21.0281 26.4106C20.5301 25.9258 19.8625 25.6545 19.1674 25.6545C18.4724 25.6545 17.8047 25.9258 17.3066 26.4106C16.8086 26.8954 16.5194 27.5554 16.5006 28.2502V45.7628C16.4986 46.4671 16.2179 47.142 15.7198 47.64C15.2218 48.1381 14.5469 48.4188 13.8426 48.4208V48.4208C13.1356 48.4224 12.4568 48.1434 11.9552 47.6451C11.4536 47.1468 11.1702 46.4698 11.1671 45.7628V37.4346C11.1767 37.0783 11.1148 36.7237 10.9851 36.3918C10.8554 36.0598 10.6606 35.7572 10.412 35.5018C10.1634 35.2464 9.86614 35.0434 9.5378 34.9048C9.20946 34.7662 8.85667 34.6948 8.50028 34.6948C8.14388 34.6948 7.79109 34.7662 7.46275 34.9048C7.13441 35.0434 6.83722 35.2464 6.58864 35.5018C6.34005 35.7572 6.14512 36.0598 6.01543 36.3918C5.88574 36.7237 5.82386 37.0783 5.83349 37.4346C5.82632 38.1402 5.54157 38.8145 5.0408 39.3117C4.54004 39.8088 3.86357 40.0886 3.15795 40.0907C2.45507 40.0851 1.78258 39.8035 1.28537 39.3066C0.788154 38.8098 0.506103 38.1375 0.5 37.4346V11.4343C0.502016 10.7283 0.782125 10.0516 1.27967 9.55079C1.77721 9.04997 2.45203 8.76537 3.15795 8.75872H3.15605ZM11.1652 19.1048C11.1748 18.7485 11.1129 18.3939 10.9832 18.0619C10.8535 17.73 10.6586 17.4274 10.41 17.172C10.1614 16.9166 9.86424 16.7136 9.5359 16.575C9.20756 16.4364 8.85477 16.365 8.49838 16.365C8.14198 16.365 7.78919 16.4364 7.46085 16.575C7.13251 16.7136 6.83523 16.9166 6.58664 17.172C6.33806 17.4274 6.14322 17.73 6.01353 18.0619C5.88384 18.3939 5.82196 18.7485 5.83158 19.1048V29.7719C5.85035 30.4667 6.13959 31.1267 6.63766 31.6115C7.13574 32.0963 7.80332 32.3676 8.49838 32.3676C9.19343 32.3676 9.86102 32.0963 10.3591 31.6115C10.8572 31.1267 11.1464 30.4667 11.1652 29.7719V19.1048ZM37.8232 29.7719V19.1048C37.8136 18.7485 37.8753 18.3939 38.005 18.0619C38.1347 17.73 38.3297 17.4274 38.5782 17.172C38.8268 16.9166 39.1241 16.7136 39.4524 16.575C39.7808 16.4364 40.1336 16.365 40.49 16.365C40.8464 16.365 41.1991 16.4364 41.5274 16.575C41.8557 16.7136 42.153 16.9166 42.4016 17.172C42.6502 17.4274 42.8451 17.73 42.9748 18.0619C43.1045 18.3939 43.1663 18.7485 43.1567 19.1048V29.7719C43.1379 30.4667 42.8488 31.1267 42.3507 31.6115C41.8526 32.0963 41.185 32.3676 40.49 32.3676C39.7949 32.3676 39.1272 32.0963 38.6292 31.6115C38.1311 31.1267 37.842 30.4667 37.8232 29.7719Z" fill="#F05255"/>
</g>
<defs>
<clipPath id="clip0_90_1026">
<rect width="48" height="48" fill="white" transform="translate(0.5 0.428589)"/>
</clipPath>
</defs>
</svg>
