<svg width="50" height="39" viewBox="0 0 50 39" fill="none" xmlns="http://www.w3.org/2000/svg">
<rect width="45.6923" height="38.0769" rx="5" fill="#F05255"/>
<path d="M6.18765 7.61541C6.97625 7.61541 7.61553 6.97613 7.61553 6.18753C7.61553 5.39893 6.97625 4.75964 6.18765 4.75964C5.39905 4.75964 4.75977 5.39893 4.75977 6.18753C4.75977 6.97613 5.39905 7.61541 6.18765 7.61541Z" fill="white"/>
<path d="M10.9469 7.61541C11.7355 7.61541 12.3748 6.97613 12.3748 6.18753C12.3748 5.39893 11.7355 4.75964 10.9469 4.75964C10.1583 4.75964 9.51904 5.39893 9.51904 6.18753C9.51904 6.97613 10.1583 7.61541 10.9469 7.61541Z" fill="white"/>
<path d="M15.7067 7.61541C16.4953 7.61541 17.1346 6.97613 17.1346 6.18753C17.1346 5.39893 16.4953 4.75964 15.7067 4.75964C14.9181 4.75964 14.2788 5.39893 14.2788 6.18753C14.2788 6.97613 14.9181 7.61541 15.7067 7.61541Z" fill="white"/>
<path d="M21.9615 11.0975C22.0434 9.75873 23.102 8.74483 24.4263 8.5325C25.8091 8.31078 27.5732 7.98103 28.9401 7.56712C30.6359 7.05365 32.9426 6.04068 34.3747 5.38226C35.2137 4.99651 36.1801 4.99651 37.0192 5.38226C38.4513 6.04068 40.758 7.05365 42.4537 7.56711C43.8207 7.98103 45.5847 8.31078 46.9675 8.5325C48.2919 8.74483 49.3505 9.75873 49.4323 11.0975C49.77 16.6188 49.3145 30.7141 36.5296 34.9636C35.9955 35.1411 35.3983 35.1411 34.8643 34.9636C22.0794 30.7141 21.6239 16.6188 21.9615 11.0975Z" fill="white"/>
<path fill-rule="evenodd" clip-rule="evenodd" d="M33.8819 30.7392C33.2797 30.4664 32.7207 30.1594 32.2021 29.8232L37.2202 9.30008C37.7385 9.54029 38.3389 9.80934 38.9388 10.0579L33.8819 30.7392ZM35.4052 8.93701L30.601 28.585C29.3682 27.4554 28.4362 26.1331 27.7349 24.7341L31.2056 10.5397C32.2169 10.1868 33.4245 9.65056 34.3328 9.22628C34.6743 9.06677 35.0375 8.97035 35.4052 8.93701Z" fill="white"/>
<path d="M25.7233 13.8904C25.7749 12.5487 26.833 11.5294 28.154 11.2897C29.0283 11.131 30.0092 10.9223 30.8045 10.6729C31.8823 10.3349 33.3009 9.70832 34.3329 9.22622C35.1963 8.82291 36.1984 8.82291 37.0618 9.22622C38.0938 9.70832 39.5124 10.3349 40.5902 10.6729C41.3855 10.9223 42.3664 11.131 43.2406 11.2897C44.5617 11.5294 45.6198 12.5487 45.6714 13.8904C45.8416 18.3163 45.1724 27.9854 36.5493 31.132C36.0025 31.3315 35.3922 31.3315 34.8454 31.132C26.2223 27.9854 25.5531 18.3163 25.7233 13.8904Z" stroke="#F05255" stroke-width="2"/>
</svg>
