<svg width="44" height="48" viewBox="0 0 44 48" fill="none" xmlns="http://www.w3.org/2000/svg">
<path d="M0.0954198 10.1892C0.225112 7.95847 1.99232 6.2726 4.19874 5.91919C6.37717 5.57027 9.10499 5.06019 11.2305 4.42389C13.9034 3.62376 17.5286 2.05385 19.8162 1.01576C21.2034 0.386257 22.7966 0.386257 24.1838 1.01576C26.4714 2.05385 30.0966 3.62376 32.7695 4.42389C34.895 5.06019 37.6228 5.57027 39.8013 5.91919C42.0077 6.2726 43.7749 7.95847 43.9046 10.1892C44.418 19.02 43.5497 40.9163 23.3725 47.5791C22.4916 47.87 21.5084 47.87 20.6275 47.5791C0.450265 40.9163 -0.417981 19.02 0.0954198 10.1892Z" fill="#F05255"/>
<path d="M4 11.9189V15.2029C4 16.413 5.74847 16.5828 5.98131 15.3953L6.35447 13.4922C6.44825 13.0139 6.71344 12.5863 7.10023 12.2898L9.04151 10.8015C9.94376 10.1098 9.1758 8.68845 8.10273 9.06403L5.3393 10.0312C4.53713 10.312 4 11.0691 4 11.9189Z" fill="white"/>
<path d="M26 32.5L28 34.5V37" stroke="white" stroke-width="2" stroke-linecap="round" stroke-linejoin="round"/>
<path d="M18 32.5L16 34.5V37" stroke="white" stroke-width="2" stroke-linecap="round" stroke-linejoin="round"/>
<path d="M29 27H32L34 29" stroke="white" stroke-width="2" stroke-linecap="round" stroke-linejoin="round"/>
<path d="M28 20H31L33 18" stroke="white" stroke-width="2" stroke-linecap="round" stroke-linejoin="round"/>
<path d="M16 20H13L11 18" stroke="white" stroke-width="2" stroke-linecap="round" stroke-linejoin="round"/>
<path d="M15 27H12L10 29" stroke="white" stroke-width="2" stroke-linecap="round" stroke-linejoin="round"/>
<path d="M19 13L17 10" stroke="white" stroke-width="2" stroke-linecap="round" stroke-linejoin="round"/>
<path d="M25 13L27 10" stroke="white" stroke-width="2" stroke-linecap="round" stroke-linejoin="round"/>
<path fill-rule="evenodd" clip-rule="evenodd" d="M23 15.0709C22.6734 15.0242 22.3395 15 22 15C21.6605 15 21.3266 15.0242 21 15.0709L21 33.9291C21.3266 33.9758 21.6605 34 22 34C22.3395 34 22.6734 33.9758 23 33.9291L23 15.0709ZM25 33.3264C27.3649 32.2029 29 29.7924 29 27V22C29 19.2076 27.3649 16.7971 25 15.6736L25 33.3264ZM15 22C15 19.2076 16.6351 16.7971 19 15.6736L19 33.3264C16.6351 32.2029 15 29.7924 15 27V22Z" fill="white"/>
</svg>
