<svg width="52" height="52" viewBox="0 0 52 52" fill="none" xmlns="http://www.w3.org/2000/svg">
<path d="M14.5 2V50" stroke="#F05255" stroke-width="3" stroke-linecap="round"/>
<path d="M50 14.5L2 14.5" stroke="#F05255" stroke-width="3" stroke-linecap="round"/>
<path d="M26 2V50" stroke="#F05255" stroke-width="3" stroke-linecap="round"/>
<path d="M50 26L2 26" stroke="#F05255" stroke-width="3" stroke-linecap="round"/>
<path d="M37.5 2V50" stroke="#F05255" stroke-width="3" stroke-linecap="round"/>
<path d="M50 37.5L2 37.5" stroke="#F05255" stroke-width="3" stroke-linecap="round"/>
<rect x="6" y="6" width="40" height="40" rx="5" fill="#F05255"/>
<path d="M14.0397 18.7445C14.1079 17.4059 15.1701 16.3891 16.493 16.1736C17.6444 15.986 19.0314 15.7216 20.1257 15.3963C21.5406 14.9757 23.4447 14.1624 24.6963 13.6008C25.525 13.229 26.475 13.229 27.3037 13.6008C28.5553 14.1624 30.4594 14.9757 31.8743 15.3963C32.9686 15.7216 34.3556 15.986 35.507 16.1736C36.8299 16.3891 37.8921 17.4059 37.9603 18.7445C38.2104 23.6545 37.588 35.17 26.8168 38.7495C26.2921 38.9239 25.7079 38.9239 25.1832 38.7495C14.412 35.17 13.7896 23.6545 14.0397 18.7445Z" fill="white"/>
<path d="M17.0426 20.1843C17.0959 19.2915 17.8013 18.6151 18.6841 18.4718C19.5807 18.3263 20.7138 18.1117 21.5943 17.8433C22.6904 17.5091 24.1779 16.8526 25.1133 16.4201C25.6756 16.1602 26.3244 16.1602 26.8867 16.4201C27.8221 16.8526 29.3096 17.5091 30.4057 17.8433C31.2862 18.1117 32.4193 18.3263 33.3159 18.4718C34.1987 18.6151 34.9041 19.2915 34.9574 20.1843C35.1747 23.8232 34.8619 33.0353 26.5583 35.8257C26.2002 35.946 25.7998 35.946 25.4417 35.8257C17.1381 33.0353 16.8253 23.8232 17.0426 20.1843Z" stroke="#F05255" stroke-width="2"/>
</svg>
