<svg width="52" height="44" viewBox="0 0 52 44" fill="none" xmlns="http://www.w3.org/2000/svg">
<path fill-rule="evenodd" clip-rule="evenodd" d="M0 21C0 27.0751 4.92487 32 11 32H40C46.6274 32 52 26.6274 52 20C52 13.3726 46.6274 8 40 8C39.8846 8 39.7696 8.00163 39.655 8.00486C37.4091 3.27235 32.5867 0 27 0C20.5543 0 15.1259 4.35606 13.4983 10.2849C12.6956 10.0985 11.8593 10 11 10C4.92487 10 0 14.9249 0 21Z" fill="#F05255"/>
<path d="M13 23C13 21.3431 14.3431 20 16 20H36C37.6569 20 39 21.3431 39 23V31C39 38.1797 33.1797 44 26 44V44C18.8203 44 13 38.1797 13 31V23Z" fill="white"/>
<path fill-rule="evenodd" clip-rule="evenodd" d="M15.5015 38.668L20.0661 20H24.0661L18.7394 41.7849C17.488 40.9408 16.3916 39.8847 15.5015 38.668ZM22.3264 43.4736C21.695 43.2879 21.0834 43.0556 20.4959 42.7806L26.0661 20H28.0661L22.3264 43.4736Z" fill="white"/>
<path d="M32 16C32 14.4087 31.3679 12.8826 30.2426 11.7574C29.1174 10.6321 27.5913 10 26 10C24.4087 10 22.8826 10.6321 21.7574 11.7574C20.6321 12.8826 20 14.4087 20 16" stroke="white" stroke-width="3" stroke-linecap="round"/>
<path fill-rule="evenodd" clip-rule="evenodd" d="M27.803 32.2122C27.6994 31.7976 27.8838 31.3735 28.1777 31.0634C28.6874 30.5257 29 29.7993 29 29C29 27.3431 27.6569 26 26 26C24.3431 26 23 27.3431 23 29C23 29.7993 23.3126 30.5257 23.8223 31.0634C24.1162 31.3735 24.3006 31.7976 24.197 32.2121L23.3106 35.7575C23.1528 36.3886 23.6302 37 24.2808 37H27.7192C28.3698 37 28.8472 36.3886 28.6894 35.7575L27.803 32.2122Z" fill="#F05255"/>
</svg>
