<svg width="43" height="45" viewBox="0 0 43 45" fill="none" xmlns="http://www.w3.org/2000/svg">
<rect x="15.229" width="27.7708" height="12.5417" rx="4" fill="#F05255"/>
<rect width="13.4375" height="12.5417" rx="4" fill="#F05255"/>
<rect x="33.146" y="14.3333" width="9.85417" height="12.5417" rx="4" fill="#F05255"/>
<rect y="14.3333" width="31.3542" height="12.5417" rx="4" fill="#F05255"/>
<rect x="27.771" y="28.6667" width="15.2292" height="12.5417" rx="4" fill="#F05255"/>
<rect y="28.6667" width="25.9792" height="12.5417" rx="4" fill="#F05255"/>
<path d="M34.8862 32.6979C34.8862 40.5813 29.0633 44.7917 21.4487 44.7917C13.8341 44.7917 5.32371 38.5208 8.90705 21.5C9.24841 22.3534 9.87432 22.9697 10.5331 23.3973C11.4993 24.0244 12.5826 23.2157 12.8343 22.0916C14.5135 14.5937 20.7045 8.88339 27.2716 8.0625C23.6883 20.1563 34.8862 22.8438 34.8862 32.6979Z" fill="white"/>
<path d="M21.6584 43C17.2175 43 12.2046 39.1387 13.028 29.8714C17.5565 34.1189 18.7915 22.1487 22.9084 20.6042C22.9084 22.1487 24.9669 32.5744 29.4954 29.8714C31.5538 37.9803 26.37 43 21.6584 43Z" fill="#F05255"/>
<path d="M22.1257 32.25C19.8113 34.9272 17.076 41.2083 21.8101 41.2083C26.5442 41.2083 24.2298 35.545 22.1257 32.25Z" fill="white"/>
</svg>
