<svg width="48" height="42" viewBox="0 0 48 42" fill="none" xmlns="http://www.w3.org/2000/svg">
<circle cx="13" cy="32" r="8" fill="white"/>
<circle cx="37" cy="32" r="8" fill="white"/>
<path d="M9.70171 25.2516C10.6333 24.657 11.6963 24.25 12.8374 24.0839L11.0526 39.4396C9.99534 39.0204 9.04871 38.3824 8.26855 37.5814L9.70171 25.2516Z" fill="white"/>
<path d="M33.7017 25.2516C34.6333 24.657 35.6963 24.25 36.8374 24.0839L35.0526 39.4396C33.9953 39.0204 33.0487 38.3824 32.2686 37.5814L33.7017 25.2516Z" fill="white"/>
<circle cx="13" cy="32" r="8" stroke="#F05255" stroke-width="3"/>
<circle cx="37" cy="32" r="8" stroke="#F05255" stroke-width="3"/>
<path d="M21 32C21.6667 31.3333 22.5 30 25 30C27.5 30 28.3333 31.3333 29 32" stroke="#F05255" stroke-width="3" stroke-linecap="round"/>
<path d="M24 14C32.4047 14 37.4019 15.8277 44.2018 19.121C45.1515 19.581 44.8192 21 43.7639 21H4.23607C3.18084 21 2.84845 19.581 3.79816 19.121C10.5981 15.8277 15.5953 14 24 14Z" fill="#F05255"/>
<path d="M15.7774 1.33554C15.888 0.671886 16.6092 0.304622 17.211 0.605509L20.9359 2.46794C21.6194 2.8097 22.4076 2.87773 23.1396 2.65813L30.9129 0.326144C31.4897 0.15308 32.0876 0.525484 32.1866 1.11957L33.8059 10.8356C33.9075 11.4451 33.4375 12 32.8195 12H15.1805C14.5625 12 14.0925 11.4451 14.1941 10.8356L15.7774 1.33554Z" fill="#F05255"/>
</svg>
