<svg xmlns="http://www.w3.org/2000/svg" viewBox="0 0 783.96 806.12"><defs><style>.cls-1{fill:#f05255;}</style></defs><g id="Layer_2" data-name="Layer 2"><g id="Layer_1-2" data-name="Layer 1"><path class="cls-1" d="M375.78,215.8l1.22,1.11c-.29-.25-.59-.52-.88-.79C376,216,375.89,215.91,375.78,215.8Z"/><path class="cls-1" d="M375.78,215.8l1.22,1.11c-.29-.25-.59-.52-.88-.79C376,216,375.89,215.91,375.78,215.8Z"/><path class="cls-1" d="M784,329V594.87a3.82,3.82,0,0,1-3.82,3.81H716.56A138.21,138.21,0,0,1,578.33,460.45v-91.2a3.84,3.84,0,0,0-1.12-2.7L456.69,246a3.77,3.77,0,0,0-2.69-1.12H330.1a3.82,3.82,0,0,0-2.69,1.11L206.75,366.55a3.85,3.85,0,0,0-1.11,2.7v59.94c0,93.63-75.86,169.49-169.36,169.49H3.81A3.82,3.82,0,0,1,0,594.87V329a169.76,169.76,0,0,1,49.76-120l192.5-192.5A56.1,56.1,0,0,1,281.93,0H504.24a51.08,51.08,0,0,1,36.14,15l193.82,194A169.76,169.76,0,0,1,784,329Z"/><path class="cls-1" d="M392,389.54l99,25s1.76,35.24-13.74,99c-12.52,51.49-59.2,80-85.27,96.12-26.07-16.13-72.75-44.63-85.27-96.12-15.5-63.77-13.74-99-13.74-99Z"/><path class="cls-1" d="M67.62,674.91a45.71,45.71,0,0,0-15,2.44,34.39,34.39,0,0,0-12.49,7.46,35.64,35.64,0,0,0-8.54,12.63,52.53,52.53,0,0,0,0,35.89A36.34,36.34,0,0,0,40.13,746a34,34,0,0,0,12.49,7.54,46,46,0,0,0,15,2.44,52.25,52.25,0,0,0,16-2.37,59.23,59.23,0,0,0,13.71-6.39l8,18.37a64.49,64.49,0,0,1-17.51,7.25,82.27,82.27,0,0,1-21.1,2.66,66.23,66.23,0,0,1-25-4.52,54.22,54.22,0,0,1-19-12.64A56.21,56.21,0,0,1,10.7,739.29a69.48,69.48,0,0,1,0-47.8,56.35,56.35,0,0,1,12.06-19.1,54.34,54.34,0,0,1,19-12.63,66.23,66.23,0,0,1,25-4.52A80.13,80.13,0,0,1,87.86,658a66.5,66.5,0,0,1,17.51,7.32l-8,18.23a63.27,63.27,0,0,0-13.71-6.25A52.56,52.56,0,0,0,67.62,674.91Z"/><path class="cls-1" d="M122.17,781.57a60.5,60.5,0,0,0,6.67,2.37c2.44.72,5,1.36,7.54,1.94s5.1,1,7.54,1.29a59,59,0,0,0,6.67.43,42.94,42.94,0,0,0,8.47-.79,21.64,21.64,0,0,0,6.68-2.44,12.79,12.79,0,0,0,4.38-4.16,11.29,11.29,0,0,0,1.58-6.11v-1.72a77.88,77.88,0,0,1-16.08,1.72,65.48,65.48,0,0,1-14.22-1.43,26.87,26.87,0,0,1-11.12-5.17A24.27,24.27,0,0,1,123,757.31q-2.58-6.46-2.58-16.37V692.85h20.24V735.2a38.48,38.48,0,0,0,.93,9.26,14.08,14.08,0,0,0,2.87,5.88,10.46,10.46,0,0,0,4.95,3.16,24.14,24.14,0,0,0,7.18.94,61.25,61.25,0,0,0,7-.43,51.08,51.08,0,0,0,8.12-1.73V692.85h20.09v74.79a67,67,0,0,1-2.08,18.09,25.17,25.17,0,0,1-7,11.85,29,29,0,0,1-12.92,6.53,84.56,84.56,0,0,1-20.1,2c-1.63,0-3.44-.1-5.45-.29s-4.07-.46-6.18-.79-4.16-.72-6.17-1.15-3.83-.88-5.46-1.36Z"/><path class="cls-1" d="M235.15,691.27c2.77-.38,5.31-.67,7.6-.86s4.41-.29,6.32-.29a50.88,50.88,0,0,1,18.74,3.3,42.71,42.71,0,0,1,14.35,9.12,40.35,40.35,0,0,1,9.19,13.64,45.93,45.93,0,0,1,.07,33.66,38.54,38.54,0,0,1-9.19,13.5,42.36,42.36,0,0,1-14.78,9,57.52,57.52,0,0,1-20,3.23,120.59,120.59,0,0,1-32.44-4.16v-114h20.1Zm0,63a57.26,57.26,0,0,0,12.49,1.58q11.91,0,18.95-5.53t7-17.29q0-11.77-7-17.52t-18.95-5.74a49.63,49.63,0,0,0-5.89.36,43.89,43.89,0,0,0-6.6,1.36Z"/><path class="cls-1" d="M351.83,755.87a39.37,39.37,0,0,0,6.47-.57,54.17,54.17,0,0,0,6.53-1.51,37.24,37.24,0,0,0,5.77-2.22,14.78,14.78,0,0,0,4.18-2.88l8.62,17.95a76.29,76.29,0,0,1-14.46,6.24,64.66,64.66,0,0,1-19.76,2.66A44.79,44.79,0,0,1,332,772.31a41.24,41.24,0,0,1-13.63-9,40.48,40.48,0,0,1-9-13.57,44,44,0,0,1-3.2-16.87,44.54,44.54,0,0,1,3.27-17.22,41.28,41.28,0,0,1,8.9-13.57,40.26,40.26,0,0,1,13.21-8.83,41.77,41.77,0,0,1,16.2-3.16,41.25,41.25,0,0,1,16.63,3.3,35.66,35.66,0,0,1,13,9.69,44.69,44.69,0,0,1,8.35,15.58,61.42,61.42,0,0,1,2.5,20.82h-62q1.93,8.32,8.13,12.34t15.37,4Zm9-44.21a23,23,0,0,0-13.35-3.74,21.08,21.08,0,0,0-13.36,4.24,20.23,20.23,0,0,0-7.23,10.69h40.89Q366.29,715.4,360.87,711.66Z"/><path class="cls-1" d="M451.05,732.33l32,41.49H459.38l-20.24-26.13-20.39,26.13H395.07l32.15-41.64L396.93,693h23.83l18.38,23.83L457.51,693h24Z"/><path class="cls-1" d="M516.37,805.4h-20.1v-111a106.51,106.51,0,0,1,15.65-3.23,128.4,128.4,0,0,1,16.8-1.08,56.32,56.32,0,0,1,19.95,3.3,44.86,44.86,0,0,1,14.86,9,37.25,37.25,0,0,1,9.26,13.49A44.77,44.77,0,0,1,576,732.76a43.85,43.85,0,0,1-3.23,16.87,39.69,39.69,0,0,1-9.19,13.56,42.94,42.94,0,0,1-14.43,9,51.39,51.39,0,0,1-18.8,3.3q-2.73,0-6.25-.22a70,70,0,0,1-7.68-.93Zm0-51.11a60.39,60.39,0,0,0,6.75,1.22,49.63,49.63,0,0,0,5.89.36q11.91,0,18.94-5.74t7-17.37q0-11.78-7-17.37T529,709.79a39.89,39.89,0,0,0-6.18.5c-2.1.34-4.26.75-6.46,1.22Z"/><path class="cls-1" d="M592.31,773.82V657.39h20.1V773.82Z"/><path class="cls-1" d="M689.86,772.24a47,47,0,0,1-34.6,0,43.83,43.83,0,0,1-13.85-9,40.72,40.72,0,0,1-9.26-13.49,42.12,42.12,0,0,1-3.38-16.87,41.56,41.56,0,0,1,3.38-16.79,42.63,42.63,0,0,1,23.11-22.69,47,47,0,0,1,34.6,0A42.63,42.63,0,0,1,713,716.11a41.55,41.55,0,0,1,3.37,16.79A42.11,42.11,0,0,1,713,749.77a41,41,0,0,1-9.26,13.49A44,44,0,0,1,689.86,772.24Zm-26.78-18.16a26,26,0,0,0,18.95,0,20.85,20.85,0,0,0,11.63-12.2,26.28,26.28,0,0,0,0-18,21.24,21.24,0,0,0-4.52-7.32,22.12,22.12,0,0,0-7.11-5,24.94,24.94,0,0,0-18.95,0,22.19,22.19,0,0,0-7.1,5,21.26,21.26,0,0,0-4.53,7.32,26.44,26.44,0,0,0,0,18,20.93,20.93,0,0,0,11.63,12.2Z"/><path class="cls-1" d="M779.65,710.94H768.17c-.77,0-1.9,0-3.38.07s-3,.14-4.59.29-3.07.31-4.45.5a18.41,18.41,0,0,0-2.94.57v61.45h-20.1V695.15c2.48-.48,5.17-.94,8-1.37s5.69-.79,8.47-1.07,5.47-.53,8.11-.72,5-.29,7.1-.29h15.22Z"/></g></g></svg>