<svg width="43" height="45" viewBox="0 0 43 45" fill="none" xmlns="http://www.w3.org/2000/svg">
<path d="M1.98997 33.4201H0.20898C0.153555 33.4201 0.1004 33.3977 0.0612089 33.3578C0.0220175 33.3179 0 33.2638 0 33.2074L0 28.6176H1.98997C7.11794 28.6176 11.2789 24.3829 11.2789 19.1556V15.8096C11.2788 15.7817 11.2842 15.754 11.2948 15.7282C11.3053 15.7025 11.3208 15.6791 11.3403 15.6594L17.9586 8.93166C17.9779 8.9118 18.0008 8.89604 18.0262 8.88531C18.0515 8.87457 18.0787 8.86908 18.1061 8.86914H18.5608C18.6048 8.86925 18.6475 8.88344 18.6831 8.9097C18.7186 8.93595 18.7451 8.97293 18.7589 9.0154C19.6716 11.7541 21.6944 13.6409 24.9021 13.6721H18.1061C18.0787 13.6721 18.0515 13.6776 18.0262 13.6883C18.0008 13.699 17.9779 13.7148 17.9586 13.7347L11.3403 20.4619C11.301 20.5019 11.2789 20.5561 11.2789 20.6126V23.9586C11.2789 29.1859 7.11794 33.4201 1.98997 33.4201Z" fill="#F05255"/>
<path d="M1.98997 28.6176H0V18.3658C0.000464329 17.1215 0.241737 15.8895 0.710041 14.7401C1.17835 13.5907 1.86451 12.5465 2.72936 11.667L13.2881 0.921079C13.5735 0.629575 13.9126 0.398186 14.286 0.240141C14.6593 0.0820959 15.0596 0.000493715 15.464 3.23463e-10L24.5532 3.23463e-10C24.6083 -3.08725e-06 24.6611 0.022098 24.7003 0.0615026C24.7394 0.100907 24.7617 0.154433 24.7622 0.210453L24.8544 8.86915L24.9021 13.4533C24.9023 13.4823 24.8967 13.511 24.8856 13.5377C24.8745 13.5645 24.8582 13.5886 24.8377 13.6087C24.8172 13.6288 24.7929 13.6444 24.7662 13.6547C24.7396 13.6649 24.7112 13.6695 24.6827 13.6683C21.6028 13.5566 19.6518 11.6921 18.7589 9.01652C18.7451 8.97406 18.7186 8.93708 18.6831 8.91082C18.6475 8.88457 18.6048 8.87038 18.5608 8.87027H18.1061C18.0787 8.8702 18.0515 8.8757 18.0262 8.88643C18.0008 8.89717 17.9779 8.91293 17.9586 8.93279L11.3403 15.6595C11.3208 15.6791 11.3053 15.7025 11.2948 15.7283C11.2842 15.754 11.2788 15.7817 11.2789 15.8096V19.1556C11.2789 24.3829 7.11794 28.6176 1.98997 28.6176Z" fill="#F05255"/>
<path d="M43.0028 33.2074C43.0029 33.2353 42.9975 33.263 42.9871 33.2889C42.9766 33.3147 42.9612 33.3382 42.9418 33.3579C42.9224 33.3777 42.8993 33.3934 42.8739 33.404C42.8485 33.4147 42.8213 33.4201 42.7938 33.4201H39.3032C38.3074 33.4202 37.3215 33.2207 36.4015 32.833C35.4815 32.4453 34.6457 31.8769 33.9416 31.1603C33.2375 30.4438 32.679 29.593 32.298 28.6568C31.9171 27.7205 31.721 26.717 31.7212 25.7037V20.9029C31.7215 22.9492 32.5204 24.9115 33.9423 26.3583C35.3642 27.8051 37.2925 28.6178 39.3032 28.6176H43.0028V33.2074Z" fill="#F04E4D"/>
<path d="M43.0028 28.6176H39.3059C38.3099 28.6181 37.3236 28.4188 36.4034 28.0312C35.4831 27.6435 34.6469 27.0752 33.9425 26.3585C33.2381 25.6419 32.6794 24.791 32.2983 23.8545C31.9171 22.918 31.721 21.9143 31.7212 20.9007V20.6126C31.7212 20.5561 31.6991 20.5019 31.6598 20.4619L25.0497 13.7324C25.0304 13.7126 25.0075 13.6968 24.9821 13.6861C24.9568 13.6754 24.9296 13.6699 24.9022 13.6699C21.638 13.6381 19.6009 11.6849 18.7118 8.86915C18.3657 7.76497 18.1929 6.54022 18.1929 5.23508V5.05923L18.2378 0.210453C18.2384 0.154433 18.2607 0.100907 18.2998 0.0615026C18.339 0.022098 18.3918 -3.08725e-06 18.4468 3.23463e-10H27.6573C28.0257 0.000180273 28.3904 0.074223 28.7306 0.217898C29.0708 0.361572 29.3799 0.572063 29.6402 0.837344L40.2707 11.667C41.1361 12.5463 41.8227 13.5904 42.2915 14.7398C42.7603 15.8892 43.002 17.1213 43.0028 18.3658V28.6176Z" fill="#F05255"/>
<path d="M21.5013 21.7453L26.9315 23.1409C26.9315 23.1409 27.028 25.1081 26.1773 28.6673C25.4911 31.5417 22.9307 33.1332 21.5007 34.0336C20.0702 33.1326 17.5098 31.5417 16.8236 28.6673C15.9729 25.1075 16.07 23.1409 16.07 23.1409L21.5013 21.7453Z" fill="#F05255"/>
<path d="M3.70842 37.6755C3.42863 37.6739 3.15055 37.72 2.88567 37.8117C2.63089 37.8995 2.39738 38.0415 2.20058 38.2281C1.99646 38.4264 1.8367 38.667 1.73216 38.9337C1.50104 39.5809 1.50104 40.2901 1.73216 40.9372C1.83762 41.2038 1.99725 41.4446 2.20058 41.6439C2.39645 41.8329 2.63015 41.9765 2.88567 42.0648C3.15055 42.1566 3.42863 42.2026 3.70842 42.201C4.00594 42.2037 4.30203 42.159 4.58603 42.0687C4.85073 41.9833 5.10348 41.8634 5.33803 41.712L5.77683 42.7381C5.47789 42.92 5.15429 43.0562 4.8164 43.1422C4.43842 43.2427 4.04917 43.2927 3.65851 43.2907C3.18971 43.2974 2.72408 43.2117 2.28725 43.0384C1.89489 42.8808 1.53973 42.6405 1.24509 42.3333C0.956509 42.0267 0.731541 41.6641 0.583594 41.2671C0.274219 40.4056 0.274219 39.4604 0.583594 38.5988C0.73248 38.2025 0.958399 37.8408 1.24783 37.5354C1.54229 37.2278 1.89749 36.9873 2.28999 36.8298C2.72682 36.6565 3.19246 36.5708 3.66125 36.5774C4.05223 36.5762 4.44162 36.628 4.81914 36.7315C5.15677 36.8205 5.48018 36.9581 5.77958 37.1401L5.34077 38.1578C5.10474 38.0114 4.85226 37.8944 4.58877 37.8095C4.30399 37.7183 4.00694 37.6731 3.70842 37.6755Z" fill="#F05255"/>
<path d="M6.70048 43.6296C6.81998 43.6809 6.94232 43.7251 7.06688 43.7619C7.20072 43.802 7.33839 43.8378 7.48045 43.8702C7.62252 43.9025 7.75964 43.926 7.89348 43.9422C8.01504 43.9575 8.13739 43.9655 8.25988 43.9662C8.4158 43.9674 8.57145 43.9526 8.72446 43.9221C8.85297 43.8975 8.97659 43.8515 9.09031 43.7859C9.1877 43.7294 9.27015 43.6497 9.33056 43.5536C9.39064 43.4508 9.42071 43.3327 9.41722 43.2131V43.1165C9.12732 43.1798 8.83172 43.2122 8.53523 43.2131C8.27331 43.2154 8.01195 43.1884 7.7558 43.1327C7.53327 43.0859 7.32448 42.9871 7.14587 42.8441C6.96587 42.6936 6.82813 42.4974 6.74655 42.2753C6.65185 42.0349 6.60449 41.7303 6.60449 41.3615V38.6769H7.71466V41.041C7.71093 41.2149 7.72825 41.3885 7.76622 41.558C7.79278 41.6786 7.84669 41.7912 7.92365 41.8868C7.99593 41.9704 8.0901 42.0314 8.19515 42.0626C8.32309 42.1001 8.45586 42.1178 8.58898 42.1151C8.71731 42.1145 8.8455 42.1065 8.97293 42.0911C9.12352 42.0714 9.27229 42.0393 9.41777 41.9951V38.6769H10.5203V42.8525C10.5272 43.1926 10.4889 43.5321 10.4062 43.8618C10.3412 44.1144 10.2082 44.3435 10.0222 44.5233C9.82023 44.7037 9.57661 44.8291 9.3141 44.8878C8.9523 44.9697 8.58217 45.0072 8.21161 44.9994C8.1222 44.9994 8.02238 44.9939 7.91213 44.9833C7.80188 44.9727 7.68889 44.9581 7.5737 44.9392C7.45851 44.9202 7.34552 44.899 7.23527 44.875C7.12502 44.851 7.02519 44.8258 6.93579 44.799L6.70048 43.6296Z" fill="#F05255"/>
<path d="M12.8974 38.5887C13.0499 38.5675 13.1887 38.5513 13.3148 38.5407C13.441 38.5301 13.5562 38.5251 13.6615 38.5251C14.0123 38.5202 14.3608 38.5827 14.6888 38.7093C14.9822 38.8234 15.2501 38.9964 15.4765 39.2179C15.6939 39.4338 15.8653 39.693 15.98 39.9793C16.0998 40.2782 16.16 40.5983 16.1572 40.921C16.1601 41.2419 16.1014 41.5603 15.9844 41.8583C15.8712 42.1433 15.6993 42.4002 15.4803 42.6119C15.2468 42.8345 14.9706 43.0055 14.6691 43.1143C14.3176 43.2397 13.9472 43.3007 13.5748 43.2946C12.9731 43.2994 12.3736 43.2207 11.7927 43.0607V36.6969H12.8952L12.8974 38.5887ZM12.8974 42.1056C13.1219 42.1605 13.3516 42.1901 13.5825 42.1938C14.018 42.1938 14.3645 42.0911 14.6219 41.8856C14.8793 41.6802 15.0073 41.3583 15.0059 40.9199C15.0059 40.4819 14.8779 40.1559 14.6219 39.9419C14.3659 39.7279 14.0195 39.6211 13.5825 39.6215C13.4747 39.6217 13.367 39.6284 13.26 39.6416C13.1374 39.6577 13.0162 39.683 12.8974 39.7175V42.1056Z" fill="#F05255"/>
<path d="M19.378 42.1949C19.5006 42.1943 19.623 42.1836 19.7439 42.1631C19.8689 42.1428 19.9926 42.1147 20.1141 42.0788C20.227 42.0466 20.337 42.0052 20.4432 41.9548C20.5299 41.9152 20.6095 41.8611 20.6785 41.7946L21.1667 42.7961C20.9066 42.94 20.6327 43.0567 20.3494 43.1444C19.9861 43.251 19.6091 43.3011 19.231 43.2929C18.8985 43.2964 18.5685 43.2352 18.2585 43.1126C17.9713 42.9984 17.7091 42.8277 17.4868 42.6102C17.2684 42.3957 17.0955 42.1379 16.9789 41.8527C16.736 41.2421 16.7376 40.5591 16.9833 39.9497C17.0987 39.6664 17.269 39.4097 17.4841 39.1948C17.6991 38.98 17.9545 38.8115 18.235 38.6992C18.5268 38.5809 18.8384 38.5212 19.1526 38.5234C19.4751 38.5198 19.7951 38.5824 20.0933 38.7076C20.3762 38.828 20.6281 39.0131 20.8294 39.2485C21.0433 39.5026 21.2042 39.7983 21.3022 40.1177C21.4167 40.4935 21.4646 40.8871 21.4437 41.2799H17.9333C18.0064 41.5896 18.16 41.8192 18.394 41.9688C18.628 42.1184 18.9182 42.1928 19.2645 42.1921L19.378 42.1949ZM19.8898 39.7269C19.664 39.582 19.4007 39.5095 19.134 39.5187C18.8632 39.5096 18.5972 39.5927 18.3781 39.7549C18.1804 39.9023 18.0363 40.1124 17.9684 40.3522H20.2836C20.2624 40.2264 20.2166 40.1063 20.149 39.9989C20.0813 39.8915 19.9932 39.799 19.8898 39.7269Z" fill="#F05255"/>
<path d="M24.7403 40.8808L26.4955 43.1969H25.1972L24.087 41.7383L22.9686 43.1969H21.6692L23.4332 40.873L21.7718 38.6853H23.0788L24.087 40.0156L25.0946 38.6853H26.411L24.7403 40.8808Z" fill="#F05255"/>
<path d="M28.3232 44.9598H27.2207V38.7635C27.502 38.6817 27.789 38.6215 28.0791 38.5832C28.3845 38.5427 28.6921 38.5228 29.0001 38.5234C29.3737 38.5168 29.7453 38.5792 30.0971 38.7076C30.3984 38.8194 30.6753 38.99 30.9121 39.21C31.134 39.4197 31.3073 39.6769 31.4195 39.9631C31.5367 40.2626 31.5956 40.5825 31.5928 40.9048C31.5956 41.2276 31.5354 41.5477 31.4157 41.8466C31.3014 42.132 31.1299 42.39 30.9121 42.6041C30.6836 42.8232 30.4145 42.994 30.1206 43.1065C29.791 43.2329 29.4411 43.2954 29.0889 43.2907C28.9891 43.2907 28.875 43.2868 28.7466 43.279C28.6054 43.2692 28.4648 43.2517 28.3254 43.2265L28.3232 44.9598ZM28.3232 42.1067C28.445 42.1366 28.5685 42.1593 28.6929 42.1748C28.8001 42.188 28.908 42.1947 29.016 42.1949C29.4515 42.1949 29.7989 42.0881 30.0581 41.8745C30.3174 41.6609 30.4454 41.3376 30.4421 40.9048C30.4421 40.4672 30.3141 40.144 30.0581 39.9352C29.8021 39.7264 29.4548 39.6222 29.016 39.6226C28.9026 39.6229 28.7895 39.6322 28.6775 39.6505C28.5616 39.6695 28.4435 39.6922 28.3232 39.7186V42.1067Z" fill="#F05255"/>
<path d="M32.4885 43.1969V36.6974H33.591V43.1969H32.4885Z" fill="#F05255"/>
<path d="M37.8386 43.1087C37.229 43.3543 36.5504 43.3543 35.9408 43.1087C35.6588 42.9915 35.401 42.821 35.1811 42.6063C34.964 42.3922 34.7913 42.136 34.6732 41.8527C34.5486 41.5551 34.4857 41.2345 34.4884 40.911C34.4855 40.5889 34.5484 40.2697 34.6732 39.9737C34.9154 39.3982 35.3709 38.9433 35.9408 38.7076C36.5504 38.462 37.229 38.462 37.8386 38.7076C38.4098 38.943 38.8662 39.3987 39.1084 39.9754C39.233 40.2715 39.2959 40.5906 39.2933 40.9126C39.2957 41.2361 39.2328 41.5567 39.1084 41.8544C38.9904 42.1377 38.8177 42.3939 38.6005 42.608C38.3798 42.8223 38.1213 42.9921 37.8386 43.1087ZM36.3703 42.095C36.7044 42.2281 37.0756 42.2281 37.4097 42.095C37.5566 42.0327 37.6892 41.9399 37.799 41.8227C37.9088 41.7055 37.9935 41.5663 38.0476 41.4139C38.1638 41.0894 38.1638 40.7336 38.0476 40.4091C37.9928 40.2572 37.9083 40.1182 37.7991 40.0005C37.6887 39.8823 37.5563 39.7874 37.4097 39.7214C37.0767 39.5822 36.7033 39.5822 36.3703 39.7214C36.2234 39.7873 36.0909 39.8821 35.9803 40.0005C35.8711 40.1181 35.7868 40.2571 35.7324 40.4091C35.6162 40.7336 35.6162 41.0894 35.7324 41.4139C35.7863 41.5664 35.8709 41.7057 35.9807 41.823C36.0905 41.9403 36.2232 42.0329 36.3703 42.095Z" fill="#F05255"/>
<path d="M42.7642 39.6868H42.134C42.0923 39.6868 42.0303 39.6868 41.9491 39.6907C41.8679 39.6946 41.7846 39.699 41.6968 39.7069C41.609 39.7147 41.529 39.7242 41.4527 39.7348C41.3982 39.7414 41.3443 39.7522 41.2915 39.7672V43.1969H40.189V38.8053C40.3257 38.7785 40.472 38.7532 40.6278 38.7294C40.7852 38.7048 40.9404 38.6853 41.0923 38.6691C41.2443 38.6529 41.3929 38.6395 41.5372 38.6289C41.6814 38.6183 41.8114 38.6127 41.9272 38.6127H42.762L42.7642 39.6868Z" fill="#F05255"/>
</svg>
